<?xml version="1.0" encoding="UTF-8"?>
<svg id="Layer_2" data-name="Layer 2" xmlns="http://www.w3.org/2000/svg" xmlns:xlink="http://www.w3.org/1999/xlink" viewBox="0 0 224 156.36">
  <defs>
    <style>
      .cls-1 {
        letter-spacing: 0em;
      }

      .cls-2 {
        letter-spacing: .02em;
      }

      .cls-3 {
        filter: url(#drop-shadow-3);
      }

      .cls-3, .cls-4, .cls-5, .cls-6 {
        fill: #bc3139;
      }

      .cls-7 {
        letter-spacing: -.04em;
      }

      .cls-8 {
        letter-spacing: -.07em;
      }

      .cls-9 {
        letter-spacing: -.02em;
      }

      .cls-10 {
        letter-spacing: -.03em;
      }

      .cls-11 {
        font-family: KGTeacherJordan, 'KG Teacher Jordan';
        font-size: 4.04px;
      }

      .cls-12 {
        letter-spacing: 0em;
      }

      .cls-13, .cls-14 {
        fill: #f9f8f1;
      }

      .cls-14 {
        font-family: PalaceScriptMT, 'Palace Script MT';
        font-size: 22.77px;
        opacity: .99;
      }

      .cls-5 {
        filter: url(#drop-shadow-2);
      }

      .cls-15 {
        letter-spacing: -.05em;
      }

      .cls-16 {
        fill: #b22e2f;
      }

      .cls-17 {
        letter-spacing: -.02em;
      }

      .cls-18 {
        letter-spacing: -.03em;
      }

      .cls-19 {
        letter-spacing: -.04em;
      }

      .cls-20 {
        letter-spacing: .13em;
      }

      .cls-21 {
        letter-spacing: .02em;
      }

      .cls-6 {
        filter: url(#drop-shadow-1);
      }
    </style>
    <filter id="drop-shadow-1" filterUnits="userSpaceOnUse">
      <feOffset dx="0" dy="-3"/>
      <feGaussianBlur result="blur" stdDeviation="9"/>
      <feFlood flood-color="#000" flood-opacity=".22"/>
      <feComposite in2="blur" operator="in"/>
      <feComposite in="SourceGraphic"/>
    </filter>
    <filter id="drop-shadow-2" filterUnits="userSpaceOnUse">
      <feOffset dx="0" dy="-3"/>
      <feGaussianBlur result="blur-2" stdDeviation="9"/>
      <feFlood flood-color="#000" flood-opacity=".22"/>
      <feComposite in2="blur-2" operator="in"/>
      <feComposite in="SourceGraphic"/>
    </filter>
    <filter id="drop-shadow-3" filterUnits="userSpaceOnUse">
      <feOffset dx="0" dy="-3"/>
      <feGaussianBlur result="blur-3" stdDeviation="17"/>
      <feFlood flood-color="#000" flood-opacity=".23"/>
      <feComposite in2="blur-3" operator="in"/>
      <feComposite in="SourceGraphic"/>
    </filter>
  </defs>
  <g id="Layer_1-2" data-name="Layer 1">
    <g>
      <g>
        <g>
          <rect class="cls-16" x="50.94" y="32.87" width="121.18" height="74.57" transform="translate(-.25 .4) rotate(-.21)"/>
          <path class="cls-4" d="m98.49,3.67l-47.68,29.58,121.18-.43L124.09,3.58c-7.87-4.8-17.77-4.77-25.61.09Z"/>
          <rect class="cls-13" x="64.81" y="10.16" width="93.24" height="70.29" transform="translate(-.16 .4) rotate(-.21)"/>
          <g>
            <polygon class="cls-6" points="111.53 70.3 172.56 107.68 172.29 32.49 111.53 70.3"/>
            <polygon class="cls-5" points="111.53 70.3 50.76 108.11 50.49 32.92 111.53 70.3"/>
          </g>
          <path class="cls-3" d="m102.24,70.14l-51.16,37.68,121.18-.43-51.43-37.31c-5.55-4.03-13.07-4-18.59.07Z"/>
        </g>
        <text class="cls-11" transform="translate(69.08 22.46) rotate(-.21)"><tspan x="0" y="0">B</tspan><tspan class="cls-1" x="1.98" y="0">e</tspan><tspan x="3.15" y="0">ing</tspan><tspan class="cls-20" x="6.35" y="0"> </tspan><tspan class="cls-12" x="7.66" y="0">c</tspan><tspan x="8.81" y="0">h</tspan><tspan class="cls-18" x="10.2" y="0">r</tspan><tspan x="11.32" y="0">oni</tspan><tspan class="cls-17" x="14.44" y="0">c</tspan><tspan x="15.55" y="0">ally</tspan><tspan class="cls-20" x="19.19" y="0"> </tspan><tspan x="20.49" y="0">single</tspan><tspan class="cls-20" x="26.64" y="0"> </tspan><tspan x="27.95" y="0">is</tspan><tspan class="cls-20" x="29.71" y="0"> </tspan><tspan x="31.02" y="0">n</tspan><tspan class="cls-1" x="32.42" y="0">o</tspan><tspan x="33.62" y="0">t</tspan><tspan class="cls-20" x="35.02" y="0"> </tspan><tspan x="36.33" y="0">a</tspan><tspan class="cls-20" x="37.77" y="0"> </tspan><tspan class="cls-17" x="39.07" y="0">c</tspan><tspan x="40.19" y="0">rime</tspan><tspan class="cls-20" x="45.25" y="0"> </tspan><tspan x="46.56" y="0">and</tspan><tspan class="cls-20" x="50.7" y="0" xml:space="preserve">  </tspan><tspan x="53.32" y="0">single</tspan><tspan class="cls-20" x="59.46" y="0"> </tspan><tspan x="60.77" y="0">fri</tspan><tspan class="cls-17" x="63.84" y="0">e</tspan><tspan x="64.96" y="0">nds</tspan><tspan class="cls-20" x="68.95" y="0"> </tspan><tspan x="70.26" y="0">al</tspan><tspan class="cls-1" x="72.16" y="0">s</tspan><tspan x="73.4" y="0">o</tspan><tspan class="cls-20" x="74.64" y="0"> </tspan><tspan x="75.95" y="0">d</tspan><tspan class="cls-7" x="77.25" y="0">e</tspan><tspan class="cls-1" x="78.3" y="0">s</tspan><tspan class="cls-18" x="79.54" y="0">e</tspan><tspan class="cls-12" x="80.63" y="0">r</tspan><tspan class="cls-18" x="81.82" y="0">v</tspan><tspan x="83.18" y="0">e </tspan><tspan class="cls-1" x="26.19" y="4.85">so</tspan><tspan x="28.63" y="4.85">m</tspan><tspan class="cls-19" x="30.77" y="4.85">e</tspan><tspan class="cls-15" x="31.82" y="4.85">t</tspan><tspan x="33.02" y="4.85">hing on </tspan><tspan class="cls-7" x="41.82" y="4.85">V</tspan><tspan x="43.47" y="4.85">al</tspan><tspan class="cls-17" x="45.37" y="4.85">e</tspan><tspan class="cls-1" x="46.5" y="4.85">n</tspan><tspan class="cls-17" x="47.85" y="4.85">t</tspan><tspan x="49.18" y="4.85">in</tspan><tspan class="cls-19" x="51.06" y="4.85">e</tspan><tspan x="52.1" y="4.85">s day</tspan><tspan x="21.28" y="9.69">(...sha hu</tspan><tspan class="cls-1" x="31.11" y="9.69">rr</tspan><tspan x="33.5" y="9.69">y up and find </tspan><tspan class="cls-17" x="49.39" y="9.69">b</tspan><tspan x="50.73" y="9.69">a</tspan><tspan class="cls-1" x="52.17" y="9.69">b</tspan><tspan x="53.54" y="9.69">e au</tspan><tspan class="cls-1" x="58.24" y="9.69">n</tspan><tspan x="59.59" y="9.69">ty)</tspan><tspan x="0" y="19.39">Any</tspan><tspan class="cls-18" x="4.67" y="19.39">w</tspan><tspan x="6.37" y="19.39">ay,</tspan><tspan class="cls-2" x="9.76" y="19.39"> </tspan><tspan x="10.65" y="19.39">I’m</tspan><tspan class="cls-21" x="13.95" y="19.39"> </tspan><tspan class="cls-17" x="14.83" y="19.39">re</tspan><tspan x="17.11" y="19.39">ally</tspan><tspan class="cls-2" x="20.75" y="19.39"> </tspan><tspan x="21.63" y="19.39">g</tspan><tspan class="cls-18" x="22.95" y="19.39">r</tspan><tspan class="cls-17" x="24.07" y="19.39">at</tspan><tspan class="cls-15" x="26.75" y="19.39">e</tspan><tspan x="27.76" y="19.39">ful</tspan><tspan class="cls-2" x="30.83" y="19.39"> </tspan><tspan x="31.71" y="19.39">f</tspan><tspan class="cls-12" x="33.06" y="19.39">o</tspan><tspan x="34.25" y="19.39">r</tspan><tspan class="cls-21" x="35.49" y="19.39"> </tspan><tspan x="36.38" y="19.39">you,</tspan><tspan class="cls-2" x="40.83" y="19.39"> </tspan><tspan x="41.72" y="19.39">f</tspan><tspan class="cls-1" x="43.06" y="19.39">o</tspan><tspan x="44.26" y="19.39">r</tspan><tspan class="cls-2" x="45.5" y="19.39"> </tspan><tspan x="46.38" y="19.39">our</tspan><tspan class="cls-2" x="50.12" y="19.39"> </tspan><tspan x="51.01" y="19.39">f</tspan><tspan class="cls-17" x="52.35" y="19.39">r</tspan><tspan class="cls-1" x="53.51" y="19.39">e</tspan><tspan x="54.67" y="19.39">indship,</tspan><tspan class="cls-21" x="63.22" y="19.39"> </tspan><tspan x="64.1" y="19.39">our</tspan><tspan class="cls-2" x="67.84" y="19.39"> </tspan><tspan x="68.73" y="19.39">laughs,</tspan><tspan class="cls-2" x="76.56" y="19.39"> </tspan><tspan class="cls-8" x="77.44" y="19.39">T</tspan><tspan x="79.21" y="19.39">unde </tspan><tspan x="31.72" y="24.24">m</tspan><tspan class="cls-1" x="33.86" y="24.24">o</tspan><tspan class="cls-17" x="35.06" y="24.24">s</tspan><tspan x="36.27" y="24.24">t im</tspan><tspan class="cls-12" x="41.08" y="24.24">po</tspan><tspan x="43.76" y="24.24">r</tspan><tspan class="cls-7" x="45" y="24.24">t</tspan><tspan x="46.24" y="24.24">a</tspan><tspan class="cls-1" x="47.68" y="24.24">n</tspan><tspan x="49.04" y="24.24">tly.</tspan><tspan x="19.12" y="29.08">Thank you f</tspan><tspan class="cls-1" x="33.42" y="29.08">o</tspan><tspan x="34.61" y="29.08">r </tspan><tspan class="cls-12" x="36.64" y="29.08">be</tspan><tspan x="39.18" y="29.08">ing an a</tspan><tspan class="cls-12" x="48.23" y="29.08">m</tspan><tspan x="50.34" y="29.08">azing </tspan><tspan class="cls-9" x="57.21" y="29.08">p</tspan><tspan class="cls-10" x="58.65" y="29.08">e</tspan><tspan class="cls-9" x="59.74" y="29.08">r</tspan><tspan class="cls-12" x="60.9" y="29.08">s</tspan><tspan x="62.14" y="29.08">on.</tspan></text>
      </g>
      <text class="cls-14" transform="translate(86.93 102.21)"><tspan x="0" y="0">Valentino</tspan></text>
    </g>
  </g>
</svg>